<mxfile host="app.diagrams.net" modified="2023-04-18T04:30:16.021Z" agent="Mozilla/5.0 (Windows NT 10.0; Win64; x64) AppleWebKit/537.36 (KHTML, like Gecko) Chrome/112.0.0.0 Safari/537.36 Edg/112.0.1722.48" version="21.1.8" etag="DPsZtL4eW9nymBxoh9jS" type="github">
  <diagram name="第 1 页" id="MkrZ2Nbn9b8mKzbFzep1">
    <mxGraphModel>
      <root>
        <mxCell id="0" />
        <mxCell id="1" parent="0" />
      </root>
    </mxGraphModel>
  </diagram>
</mxfile>
